{
    "asset" : {
        "generator" : "Khronos glTF Blender I/O v1.5.17",
        "version" : "2.0"
    },
    "scene" : 0,
    "scenes" : [
        {
            "name" : "Scene",
            "nodes" : [
                0,
                1
            ]
        }
    ],
    "nodes" : [
        {
            "mesh" : 0,
            "name" : "path50",
            "rotation" : [
                0,
                0.7068080902099609,
                0,
                0.7074054479598999
            ],
            "scale" : [
                23.027660369873047,
                130.02462768554688,
                23.027660369873047
            ]
        },
        {
            "mesh" : 1,
            "name" : "path54",
            "rotation" : [
                0,
                0.7068080902099609,
                0,
                0.7074054479598999
            ],
            "scale" : [
                23.027660369873047,
                130.02462768554688,
                23.027660369873047
            ]
        }
    ],
    "materials" : [
        {
            "doubleSided" : true,
            "name" : "SVGMat.008",
            "pbrMetallicRoughness" : {
                "baseColorFactor" : [
                    0,
                    0.03071344457566738,
                    0.05612849071621895,
                    1
                ],
                "metallicFactor" : 0,
                "roughnessFactor" : 0.4000000059604645
            }
        },
        {
            "doubleSided" : true,
            "name" : "SVGMat.009",
            "pbrMetallicRoughness" : {
                "baseColorFactor" : [
                    0.30054378509521484,
                    0.5840784311294556,
                    0.04666508734226227,
                    1
                ],
                "metallicFactor" : 0,
                "roughnessFactor" : 0.4000000059604645
            }
        }
    ],
    "meshes" : [
        {
            "name" : "path50",
            "primitives" : [
                {
                    "attributes" : {
                        "POSITION" : 0,
                        "NORMAL" : 1,
                        "TEXCOORD_0" : 2
                    },
                    "indices" : 3,
                    "material" : 0
                }
            ]
        },
        {
            "name" : "path54",
            "primitives" : [
                {
                    "attributes" : {
                        "POSITION" : 4,
                        "NORMAL" : 5,
                        "TEXCOORD_0" : 6
                    },
                    "indices" : 7,
                    "material" : 1
                }
            ]
        }
    ],
    "accessors" : [
        {
            "bufferView" : 0,
            "componentType" : 5126,
            "count" : 8092,
            "max" : [
                0.06002229079604149,
                0.0007016474264673889,
                -0.042088232934474945
            ],
            "min" : [
                0.01434425637125969,
                0,
                -0.07684911787509918
            ],
            "type" : "VEC3"
        },
        {
            "bufferView" : 1,
            "componentType" : 5126,
            "count" : 8092,
            "type" : "VEC3"
        },
        {
            "bufferView" : 2,
            "componentType" : 5126,
            "count" : 8092,
            "type" : "VEC2"
        },
        {
            "bufferView" : 3,
            "componentType" : 5123,
            "count" : 13344,
            "type" : "SCALAR"
        },
        {
            "bufferView" : 4,
            "componentType" : 5126,
            "count" : 929,
            "max" : [
                0.062317557632923126,
                0.0008008634322322905,
                -0.02888643741607666
            ],
            "min" : [
                0.016810741275548935,
                0,
                -0.06295733153820038
            ],
            "type" : "VEC3"
        },
        {
            "bufferView" : 5,
            "componentType" : 5126,
            "count" : 929,
            "type" : "VEC3"
        },
        {
            "bufferView" : 6,
            "componentType" : 5126,
            "count" : 929,
            "type" : "VEC2"
        },
        {
            "bufferView" : 7,
            "componentType" : 5123,
            "count" : 1500,
            "type" : "SCALAR"
        }
    ],
    "bufferViews" : [
        {
            "buffer" : 0,
            "byteLength" : 97104,
            "byteOffset" : 0
        },
        {
            "buffer" : 0,
            "byteLength" : 97104,
            "byteOffset" : 97104
        },
        {
            "buffer" : 0,
            "byteLength" : 64736,
            "byteOffset" : 194208
        },
        {
            "buffer" : 0,
            "byteLength" : 26688,
            "byteOffset" : 258944
        },
        {
            "buffer" : 0,
            "byteLength" : 11148,
            "byteOffset" : 285632
        },
        {
            "buffer" : 0,
            "byteLength" : 11148,
            "byteOffset" : 296780
        },
        {
            "buffer" : 0,
            "byteLength" : 7432,
            "byteOffset" : 307928
        },
        {
            "buffer" : 0,
            "byteLength" : 3000,
            "byteOffset" : 315360
        }
    ],
    "buffers" : [
        {
            "byteLength" : 318360,
            "uri" : "logo.bin"
        }
    ]
}
